<svg xmlns="http://www.w3.org/2000/svg" width="73.208" height="92.234" viewBox="0 0 73.208 92.234"><defs><style>.a{fill:#ffaf10;}.b{fill:#ef9614;}.c{fill:#ffd00d;}.d{fill:#ef8318;}.e{fill:#db722c;}.f{fill:#a05f33;}.g{fill:#87502a;}.h{fill:#293d7c;}.i{fill:#1a2b63;}.j{fill:#c95e23;}.k{fill:#fff;}</style></defs><path class="a" d="M245.413,318.768V308.179a5.341,5.341,0,0,1-1.273.154h-4.368a5.341,5.341,0,0,1-1.273-.154v10.589Z" transform="translate(-205.352 -247.312)"/><path class="b" d="M241.561,318.768V308.333h-1.789a5.341,5.341,0,0,1-1.273-.154v10.589Z" transform="translate(-205.352 -247.312)"/><path class="c" d="M225.436,279.417a21.169,21.169,0,0,1-7.522-1.375v.974a5.338,5.338,0,0,0,5.338,5.338h4.368a5.338,5.338,0,0,0,5.338-5.338v-.974A21.17,21.17,0,0,1,225.436,279.417Z" transform="translate(-188.832 -223.128)"/><path class="a" d="M224.033,279.369a21.124,21.124,0,0,1-6.118-1.327v.974a5.338,5.338,0,0,0,5.338,5.338h4.368a5.365,5.365,0,0,0,.869-.071A5.339,5.339,0,0,1,224.033,279.369Z" transform="translate(-188.833 -223.128)"/><path class="d" d="M232.405,364.345v-3.358a.99.99,0,0,0-.988-.988h-13.43a.99.99,0,0,0-.988.988v3.358Z" transform="translate(-188.099 -288.898)"/><path class="e" d="M222.925,364.345v-3.358a.99.99,0,0,1,.988-.988h-5.925a.99.99,0,0,0-.988.988v3.358Z" transform="translate(-188.099 -288.898)"/><path class="f" d="M198.828,397.183v-16.2a.99.99,0,0,0-.988-.988H162.488a.99.99,0,0,0-.988.988v16.2Z" transform="translate(-143.56 -304.948)"/><path class="g" d="M164.561,397.183v-16.2a.99.99,0,0,1,.988-.988h-3.061a.99.99,0,0,0-.988.988v16.2Z" transform="translate(-143.56 -304.948)"/><path class="h" d="M215.452,407.283a.99.99,0,0,1-.988.987h-24.5a.99.99,0,0,1-.988-.987v-8.3a.99.99,0,0,1,.988-.988h24.5a.99.99,0,0,1,.988.988Z" transform="translate(-165.611 -319.393)"/><path class="i" d="M192.924,407.283v-8.3a.99.99,0,0,1,.988-.988h-3.946a.99.99,0,0,0-.988.988v8.3a.99.99,0,0,0,.988.987h3.946A.99.99,0,0,1,192.924,407.283Z" transform="translate(-165.611 -319.393)"/><path class="a" d="M374.585,25.591h-7.654v1.661a.791.791,0,0,1-.79.79h-3.314a.2.2,0,0,0-.2.2v2.289h10.353A31.6,31.6,0,0,1,362.629,52.4v3.153a21.344,21.344,0,0,1-.268,3.371,36.586,36.586,0,0,0,15.6-29.959A3.377,3.377,0,0,0,374.585,25.591Z" transform="translate(-304.75 -20.537)"/><path class="c" d="M86,55.551V52.4a31.6,31.6,0,0,1-10.353-21.87H86V28.239a.2.2,0,0,0-.2-.2H82.485a.791.791,0,0,1-.79-.79V25.591H74.041a3.377,3.377,0,0,0-3.373,3.373,36.587,36.587,0,0,0,15.6,29.959A21.347,21.347,0,0,1,86,55.551Z" transform="translate(-70.668 -20.537)"/><path class="d" d="M147.282,38V65.509a21.472,21.472,0,0,0,42.945,0V38Z" transform="translate(-132.15 -30.495)"/><g transform="translate(15.132 7.308)"><path class="e" d="M151.571,64.709V37h-4.289V64.709a21.472,21.472,0,0,0,21.472,21.472c.719,0,1.429-.038,2.13-.108A21.475,21.475,0,0,1,151.571,64.709Z" transform="translate(-147.282 -37.003)"/><circle class="e" cx="14.615" cy="14.615" r="14.615" transform="translate(6.857 8.788)"/></g><path class="j" d="M185.753,96.114a14.615,14.615,0,0,1,12.739-14.491,14.615,14.615,0,1,0,0,28.983A14.615,14.615,0,0,1,185.753,96.114Z" transform="translate(-160.011 -65.403)"/><path class="c" d="M222.7,128.211a1.571,1.571,0,0,1-.734-.195l-3.979-2.092a1.053,1.053,0,0,0-.748,0l-3.979,2.092a1.575,1.575,0,0,1-.734.195,1.186,1.186,0,0,1-.923-.421,1.417,1.417,0,0,1-.272-1.176l.76-4.43a1.049,1.049,0,0,0-.231-.711l-3.219-3.138a1.274,1.274,0,0,1,.737-2.268l4.448-.646a1.049,1.049,0,0,0,.6-.439l1.989-4.031a1.274,1.274,0,0,1,2.385,0l1.989,4.031a1.048,1.048,0,0,0,.6.439l4.448.646a1.274,1.274,0,0,1,.737,2.268l-3.219,3.138a1.048,1.048,0,0,0-.231.711l.76,4.43a1.417,1.417,0,0,1-.272,1.176A1.186,1.186,0,0,1,222.7,128.211Z" transform="translate(-181.01 -88.375)"/><path class="a" d="M214.59,149.26l.823-4.8a1.137,1.137,0,0,0-.25-.77l-3.488-3.4a1.465,1.465,0,0,1-.473-1.417l-1.825.265a1.274,1.274,0,0,0-.737,2.268l3.219,3.138a1.049,1.049,0,0,1,.231.711l-.76,4.43a1.418,1.418,0,0,0,.272,1.176,1.186,1.186,0,0,0,.923.421,1.574,1.574,0,0,0,.734-.195l1.476-.776A1.625,1.625,0,0,1,214.59,149.26Z" transform="translate(-181.008 -111.443)"/><path class="c" d="M177.049,6.715a.99.99,0,0,1-.988.988H126.488a.99.99,0,0,1-.988-.988V.988A.99.99,0,0,1,126.488,0h49.574a.99.99,0,0,1,.988.988Z" transform="translate(-114.67)"/><path class="a" d="M131.524,6.715V.988A.99.99,0,0,1,132.511,0h-6.024a.99.99,0,0,0-.988.988V6.715a.99.99,0,0,0,.988.988h6.024A.99.99,0,0,1,131.524,6.715Z" transform="translate(-114.67)"/><path class="c" d="M101.32,279.641a.592.592,0,0,1-.561-.4c-1.137-3.368-1.988-4.219-5.356-5.356a.593.593,0,0,1,0-1.123c3.368-1.137,4.219-1.988,5.356-5.356a.592.592,0,0,1,1.123,0c1.137,3.368,1.988,4.219,5.356,5.356a.593.593,0,0,1,0,1.123c-3.368,1.137-4.219,1.987-5.356,5.356A.592.592,0,0,1,101.32,279.641Z" transform="translate(-90.194 -214.267)"/><g transform="translate(19.816 6.32)"><path class="k" d="M355.036,257.073a.473.473,0,0,1-.448-.321c-.906-2.684-1.584-3.362-4.268-4.268a.472.472,0,0,1,0-.895c2.684-.906,3.362-1.584,4.268-4.268a.472.472,0,0,1,.9,0c.906,2.684,1.584,3.362,4.268,4.268a.472.472,0,0,1,0,.895c-2.684.906-3.362,1.584-4.268,4.268A.473.473,0,0,1,355.036,257.073Z" transform="translate(-314.647 -204.537)"/><path class="k" d="M235.653,410.975H224.988a.988.988,0,1,1,0-1.975h10.665a.988.988,0,1,1,0,1.975Z" transform="translate(-213.532 -334.541)"/><path class="k" d="M242.913,428.975h-5.925a.988.988,0,1,1,0-1.975h5.925a.988.988,0,1,1,0,1.975Z" transform="translate(-223.162 -348.986)"/><path class="k" d="M175.74,41.48a.445.445,0,0,1-.421-.3c-.853-2.526-1.491-3.164-4.017-4.017a.444.444,0,0,1,0-.842c2.526-.852,3.164-1.491,4.017-4.017a.444.444,0,0,1,.842,0c.853,2.526,1.491,3.164,4.017,4.017a.444.444,0,0,1,0,.842c-2.526.853-3.164,1.491-4.017,4.017A.445.445,0,0,1,175.74,41.48Z" transform="translate(-171 -32)"/></g></svg>