<svg xmlns="http://www.w3.org/2000/svg" width="36" height="36" viewBox="0 0 36 36"><defs><style>.a{fill:#f8c246;}.b{fill:#302a62;}</style></defs><g transform="translate(-215 -391)"><circle class="a" cx="18" cy="18" r="18" transform="translate(215 391)"/><g transform="translate(224.75 400.75)"><path class="b" d="M43.507,26.63c.936.082,1.833.157,2.729.242a1.016,1.016,0,0,1,.674.356q2.117,2.379,4.233,4.756c.134.152.192.148.324,0,1.4-1.579,2.8-3.149,4.2-4.724a1.062,1.062,0,0,1,.706-.387c.9-.084,1.809-.159,2.713-.246.159-.016.185.033.171.176q-.131,1.333-.249,2.668a1.1,1.1,0,0,1-.394.748c-1.624,1.445-3.245,2.9-4.873,4.338-.136.12-.15.185-.023.321.382.408,1.14,1.183,1.518,1.595.092.1.108.159,0,.265q-.878.86-1.739,1.737c-.1.1-.152.092-.247,0-.474-.432-1.352-1.2-1.825-1.635-.1-.094-.155-.084-.251,0-.462.422-1.3,1.222-1.757,1.647-.131.12-.2.1-.314-.014q-.844-.863-1.706-1.708c-.1-.094-.1-.145-.01-.246.389-.422,1.122-1.251,1.514-1.67.118-.127.094-.181-.023-.286-1.628-1.443-3.247-2.893-4.873-4.338a1.164,1.164,0,0,1-.418-.807q-.112-1.31-.24-2.623c-.016-.171.038-.218.157-.171Z" transform="translate(-42.768 -26.613)"/><path class="b" d="M16.707,541.668a.711.711,0,0,1-.533-.237c-.308-.312-.624-.619-.929-.934-.084-.087-.132-.1-.227-.007q-1.038,1.048-2.086,2.086c-.082.082.2.39.286.49a.357.357,0,0,1-.024.535.361.361,0,0,1-.551.031q-1.239-1.229-2.464-2.464a.352.352,0,0,1,.019-.549.367.367,0,0,1,.552-.021l.016.016a.852.852,0,0,0,.744-.023c.6-.594,1.189-1.192,1.788-1.783.1-.1.108-.155,0-.256-.314-.3-.615-.607-.918-.913a.717.717,0,0,1,0-1.086c.058-.059.115-.117.174-.174a.716.716,0,0,1,1.1.007q1.882,1.879,3.759,3.761a.721.721,0,0,1,0,1.117c-.34.34-.451.4-.711.4Z" transform="translate(-10.056 -527.245)"/><path class="b" d="M558.14,536.941a.726.726,0,0,1-.228.539c-.312.308-.619.624-.934.929-.092.089-.111.139-.007.24q1.043,1.027,2.07,2.069c.092.092.4-.188.495-.274a.365.365,0,0,1,.535.017.351.351,0,0,1,.038.549q-1.234,1.247-2.48,2.48a.407.407,0,0,1-.565-.58c.019-.023.38-.382.068-.694-.612-.61-1.225-1.216-1.828-1.835-.127-.131-.193-.119-.309.005-.265.282-.544.551-.817.824a.741.741,0,0,1-1.211.007c-.037-.037-.073-.073-.11-.112a.718.718,0,0,1,0-1.1q1.357-1.359,2.717-2.717.528-.528,1.06-1.058a.716.716,0,0,1,1.1,0c.335.331.408.457.41.707Z" transform="translate(-543.145 -527.098)"/></g></g></svg>